{
    "asset" : {
        "generator" : "Khronos glTF Blender I/O v0.9.36",
        "version" : "2.0"
    },
    "scene" : 0,
    "scenes" : [
        {
            "name" : "Scene",
            "nodes" : [
                0,
                1
            ]
        }
    ],
    "nodes" : [
        {
            "mesh" : 0,
            "name" : "Mask",
            "rotation" : [
                0.7071068286895752,
                0,
                0,
                0.7071067094802856
            ],
            "scale" : [
                1.5,
                1.5,
                1.5
            ],
            "translation" : [
                0,
                0,
                -1.9301341772079468
            ]
        },
        {
            "mesh" : 1,
            "name" : "transparentOccluder",
            "rotation" : [
                1,
                0,
                0,
                -1.3435885648505064e-07
            ],
            "scale" : [
                1.5,
                1.5,
                1.5
            ],
            "translation" : [
                0,
                3.660360813140869,
                -74.14704132080078
            ]
        }
    ],
    "materials" : [
        {
            "alphaMode" : "BLEND",
            "doubleSided" : true,
            "emissiveFactor" : [
                0,
                0,
                0
            ],
            "name" : "Mask_PBR",
            "normalTexture" : {
                "index" : 0,
                "texCoord" : 0
            },
            "occlusionTexture" : {
                "index" : 1,
                "texCoord" : 0
            },
            "pbrMetallicRoughness" : {
                "baseColorTexture" : {
                    "index" : 2,
                    "texCoord" : 0
                },
                "metallicRoughnessTexture" : {
                    "index" : 1,
                    "texCoord" : 0
                }
            }
        },
        {
            "doubleSided" : true,
            "name" : "defaultMat",
            "pbrMetallicRoughness" : {
                "baseColorFactor" : [
                    1,
                    1,
                    1,
                    1
                ],
                "metallicFactor" : 1,
                "roughnessFactor" : 1
            }
        }
    ],
    "meshes" : [
        {
            "name" : "MaskShape",
            "primitives" : [
                {
                    "attributes" : {
                        "POSITION" : 0,
                        "NORMAL" : 1,
                        "TEXCOORD_0" : 2
                    },
                    "indices" : 3,
                    "material" : 0
                }
            ]
        },
        {
            "name" : "MaskShape.001",
            "primitives" : [
                {
                    "attributes" : {
                        "POSITION" : 4,
                        "NORMAL" : 5,
                        "TEXCOORD_0" : 6
                    },
                    "indices" : 3,
                    "material" : 1
                }
            ]
        }
    ],
    "textures" : [
        {
            "source" : 0
        },
        {
            "source" : 1
        },
        {
            "source" : 2
        }
    ],
    "images" : [
        {
            "mimeType" : "image/png",
            "name" : "Mask_Normal",
            "uri" : "Mask_Normal.png"
        },
        {
            "mimeType" : "image/png",
            "name" : "Mask_Occ-Mask_Rough-Mask_Metal",
            "uri" : "Mask_Occ-Mask_Rough-Mask_Metal.png"
        },
        {
            "mimeType" : "image/png",
            "name" : "Mask_Diff",
            "uri" : "Mask_Diff.png"
        }
    ],
    "accessors" : [
        {
            "bufferView" : 0,
            "componentType" : 5126,
            "count" : 871,
            "max" : [
                72.3677978515625,
                32.01896286010742,
                38.98518371582031
            ],
            "min" : [
                -72.3677978515625,
                -73.49815368652344,
                -95.39215087890625
            ],
            "type" : "VEC3"
        },
        {
            "bufferView" : 1,
            "componentType" : 5126,
            "count" : 871,
            "type" : "VEC3"
        },
        {
            "bufferView" : 2,
            "componentType" : 5126,
            "count" : 871,
            "type" : "VEC2"
        },
        {
            "bufferView" : 3,
            "componentType" : 5123,
            "count" : 4836,
            "type" : "SCALAR"
        },
        {
            "bufferView" : 4,
            "componentType" : 5126,
            "count" : 871,
            "max" : [
                72.3677978515625,
                40.95960998535156,
                27.158905029296875
            ],
            "min" : [
                -72.3677978515625,
                -93.417724609375,
                -78.35821533203125
            ],
            "type" : "VEC3"
        },
        {
            "bufferView" : 5,
            "componentType" : 5126,
            "count" : 871,
            "type" : "VEC3"
        },
        {
            "bufferView" : 6,
            "componentType" : 5126,
            "count" : 871,
            "type" : "VEC2"
        }
    ],
    "bufferViews" : [
        {
            "buffer" : 0,
            "byteLength" : 10452,
            "byteOffset" : 0
        },
        {
            "buffer" : 0,
            "byteLength" : 10452,
            "byteOffset" : 10452
        },
        {
            "buffer" : 0,
            "byteLength" : 6968,
            "byteOffset" : 20904
        },
        {
            "buffer" : 0,
            "byteLength" : 9672,
            "byteOffset" : 27872
        },
        {
            "buffer" : 0,
            "byteLength" : 10452,
            "byteOffset" : 37544
        },
        {
            "buffer" : 0,
            "byteLength" : 10452,
            "byteOffset" : 47996
        },
        {
            "buffer" : 0,
            "byteLength" : 6968,
            "byteOffset" : 58448
        }
    ],
    "buffers" : [
        {
            "byteLength" : 65416,
            "uri" : "5GMask.bin"
        }
    ]
}
