{
    "asset" : {
        "generator" : "Khronos glTF Blender I/O v0.9.36",
        "version" : "2.0"
    },
    "scene" : 0,
    "scenes" : [
        {
            "name" : "Scene",
            "nodes" : [
                0,
                6
            ]
        }
    ],
    "nodes" : [
        {
            "mesh" : 0,
            "name" : "head.002",
            "scale" : [
                181.64700317382812,
                160,
                180
            ]
        },
        {
            "mesh" : 1,
            "name" : "Tiger_Mask_Tiger_Mask_0"
        },
        {
            "children" : [
                1
            ],
            "name" : "Tiger_Mask",
            "rotation" : [
                -0.7071068286895752,
                0,
                0,
                0.7071068286895752
            ]
        },
        {
            "children" : [
                2
            ],
            "name" : "RootNode.006"
        },
        {
            "children" : [
                3
            ],
            "name" : "Mask_tiger.FBX",
            "rotation" : [
                1,
                0,
                0,
                0
            ]
        },
        {
            "children" : [
                4
            ],
            "name" : "RootNode (model correction matrix).007",
            "rotation" : [
                1,
                0,
                0,
                0
            ],
            "translation" : [
                0,
                -41.310726165771484,
                12.430459022521973
            ]
        },
        {
            "children" : [
                5
            ],
            "name" : "RootNode (gltf orientation matrix).004",
            "scale" : [
                8,
                8,
                8
            ],
            "translation" : [
                0,
                282.7094421386719,
                -148.42001342773438
            ]
        }
    ],
    "materials" : [
        {
            "doubleSided" : true,
            "name" : "defaultMat.001",
            "pbrMetallicRoughness" : {}
        },
        {
            "doubleSided" : true,
            "name" : "Tiger_Mask",
            "normalTexture" : {
                "index" : 0,
                "texCoord" : 0
            },
            "pbrMetallicRoughness" : {
                "baseColorTexture" : {
                    "index" : 1,
                    "texCoord" : 0
                },
                "metallicRoughnessTexture" : {
                    "index" : 2,
                    "texCoord" : 0
                }
            }
        }
    ],
    "meshes" : [
        {
            "name" : "Group1",
            "primitives" : [
                {
                    "attributes" : {
                        "POSITION" : 0,
                        "NORMAL" : 1,
                        "TEXCOORD_0" : 2
                    },
                    "indices" : 3,
                    "material" : 0
                }
            ]
        },
        {
            "name" : "Tiger_Mask_Tiger_Mask_0",
            "primitives" : [
                {
                    "attributes" : {
                        "POSITION" : 4,
                        "NORMAL" : 5,
                        "TEXCOORD_0" : 6
                    },
                    "indices" : 7,
                    "material" : 1
                }
            ]
        }
    ],
    "textures" : [
        {
            "source" : 0
        },
        {
            "source" : 1
        },
        {
            "source" : 2
        }
    ],
    "images" : [
        {
            "mimeType" : "image/png",
            "name" : "Tiger_Mask_normal",
            "uri" : "Tiger_Mask_normal.png"
        },
        {
            "mimeType" : "image/png",
            "name" : "Tiger_Mask_baseColor",
            "uri" : "Tiger_Mask_baseColor.png"
        },
        {
            "mimeType" : "image/png",
            "name" : "Tiger_Mask_metallicRoughness",
            "uri" : "Tiger_Mask_metallicRoughness.png"
        }
    ],
    "accessors" : [
        {
            "bufferView" : 0,
            "componentType" : 5126,
            "count" : 2868,
            "max" : [
                0.6231987476348877,
                1.0436625480651855,
                0.19949853420257568
            ],
            "min" : [
                -0.5944988131523132,
                -1.084633231163025,
                -1.3837981224060059
            ],
            "type" : "VEC3"
        },
        {
            "bufferView" : 1,
            "componentType" : 5126,
            "count" : 2868,
            "type" : "VEC3"
        },
        {
            "bufferView" : 2,
            "componentType" : 5126,
            "count" : 2868,
            "type" : "VEC2"
        },
        {
            "bufferView" : 3,
            "componentType" : 5123,
            "count" : 2868,
            "type" : "SCALAR"
        },
        {
            "bufferView" : 4,
            "componentType" : 5126,
            "count" : 942,
            "max" : [
                22.66080093383789,
                26.864999771118164,
                40.295101165771484
            ],
            "min" : [
                -22.66080093383789,
                -14.43455696105957,
                1.0155999660491943
            ],
            "type" : "VEC3"
        },
        {
            "bufferView" : 5,
            "componentType" : 5126,
            "count" : 942,
            "type" : "VEC3"
        },
        {
            "bufferView" : 6,
            "componentType" : 5126,
            "count" : 942,
            "type" : "VEC2"
        },
        {
            "bufferView" : 7,
            "componentType" : 5123,
            "count" : 942,
            "type" : "SCALAR"
        }
    ],
    "bufferViews" : [
        {
            "buffer" : 0,
            "byteLength" : 34416,
            "byteOffset" : 0
        },
        {
            "buffer" : 0,
            "byteLength" : 34416,
            "byteOffset" : 34416
        },
        {
            "buffer" : 0,
            "byteLength" : 22944,
            "byteOffset" : 68832
        },
        {
            "buffer" : 0,
            "byteLength" : 5736,
            "byteOffset" : 91776
        },
        {
            "buffer" : 0,
            "byteLength" : 11304,
            "byteOffset" : 97512
        },
        {
            "buffer" : 0,
            "byteLength" : 11304,
            "byteOffset" : 108816
        },
        {
            "buffer" : 0,
            "byteLength" : 7536,
            "byteOffset" : 120120
        },
        {
            "buffer" : 0,
            "byteLength" : 1884,
            "byteOffset" : 127656
        }
    ],
    "buffers" : [
        {
            "byteLength" : 129540,
            "uri" : "tiger.bin"
        }
    ]
}
